# Alias OBJ Model File
# Exported from SketchUp, (c) 2000-2012 Trimble Navigation Limited
# File units = inches

mtllib Nightstand-SideTable.mtl

g Mesh1 Model

usemtl Wood_Floor
v 32.7053 0 -4.32035
vt -2.05622 0
vn 0 -1 -0
v 31.2053 0 -4.32035
vt -2.03122 0
v 31.2053 0 -20.3203
vt -2.03122 0.266667
v 32.7053 0 -20.3203
vt -2.05622 0.266667
f 1/1/1 2/2/1 3/3/1 4/4/1 

v 8.70534 20 -4.32035
vt 1.65622 0.333333
vn 0 0 1
v 8.70534 0 -4.32035
vt 1.65622 0
v 10.2053 0 -4.32035
vt 1.68122 0
v 10.2053 18.5 -4.32035
vt 1.68122 0.308333
v 31.2053 18.5 -4.32035
vt 2.03122 0.308333
vt 2.03122 0
vt 2.05622 0
v 32.7053 20 -4.32035
vt 2.05622 0.333333
f 5/5/2 6/6/2 7/7/2 8/8/2 9/9/2 2/10/2 1/11/2 10/12/2 

vt 0 0
vn -1 0 -0
vt 0 0.333333
v 8.70534 20 -20.3203
vt -0.266667 0.333333
v 8.70534 0 -20.3203
vt -0.266667 0
f 6/13/3 5/14/3 11/15/3 12/16/3 

vn 0 1 -0
v 32.7053 20 -20.3203
vt 2.05622 0.266667
vt 1.65622 0.266667
f 5/6/4 10/11/4 13/17/4 11/18/4 

vn 1 0 -0
vt 0.266667 0
vt 0.266667 0.333333
f 10/14/5 1/13/5 4/19/5 13/20/5 

vt -1.65622 0
vn 0 0 -1
vt -1.65622 0.333333
vt -2.05622 0.333333
v 31.2053 18.5 -20.3203
vt -2.03122 0.308333
v 10.2053 18.5 -20.3203
vt -1.68122 0.308333
v 10.2053 0 -20.3203
vt -1.68122 0
f 12/21/6 11/22/6 13/23/6 4/1/6 3/2/6 14/24/6 15/25/6 16/26/6 

vt 0 0.308333
vt -0.266667 0.308333
f 2/13/3 9/27/3 14/28/3 3/16/3 

vt -1.68122 0.266667
f 9/2/1 8/26/1 15/29/1 14/3/1 

vt 0.266667 0.308333
f 8/27/5 7/13/5 16/19/5 15/30/5 

vt -1.65622 0.266667
f 7/26/1 6/21/1 12/31/1 16/29/1 

