# Alias OBJ Model File
# Exported from SketchUp, (c) 2000-2012 Trimble Navigation Limited
# File units = inches

mtllib Nightstand-SideTable.mtl

g Mesh1 Model

usemtl Wood_Floor
v 14.3448 0 -20.1072
vt -0.968153 0
vn 0 0 -1
v 14.3448 24 -20.1072
vt -0.968153 0.4
v 34.3448 24 -20.1072
vt -1.30149 0.4
v 34.3448 0 -20.1072
vt -1.30149 0
v 32.8448 0 -20.1072
vt -1.27649 0
v 32.8448 22.5 -20.1072
vt -1.27649 0.375
v 15.8448 22.5 -20.1072
vt -0.993153 0.375
v 15.8448 0 -20.1072
vt -0.993153 0
f 1/1/1 2/2/1 3/3/1 4/4/1 5/5/1 6/6/1 7/7/1 8/8/1 

v 14.3448 0 -4.1072
vt 0 0
vn -1 0 -0
v 14.3448 24 -4.1072
vt 0 0.4
vt -0.266667 0.4
vt -0.266667 0
f 9/9/2 10/10/2 2/11/2 1/12/2 

vt 0.968153 0.4
vn 0 0 1
vt 0.968153 0
v 15.8448 0 -4.1072
vt 0.993153 0
v 15.8448 22.5 -4.1072
vt 0.993153 0.375
v 32.8448 22.5 -4.1072
vt 1.27649 0.375
v 32.8448 0 -4.1072
vt 1.27649 0
v 34.3448 0 -4.1072
vt 1.30149 0
v 34.3448 24 -4.1072
vt 1.30149 0.4
f 10/13/3 9/14/3 11/15/3 12/16/3 13/17/3 14/18/3 15/19/3 16/20/3 

vn 0 -1 -0
vt -0.968153 0.266667
vt -0.993153 0.266667
f 11/8/4 9/1/4 1/21/4 8/22/4 

vt 0 0.375
vn 1 0 -0
vt 0.266667 0
vt 0.266667 0.375
f 12/23/5 11/9/5 8/24/5 7/25/5 

vt -1.27649 0.266667
f 13/5/4 12/8/4 7/22/4 6/26/4 

vt -0.266667 0.375
f 14/9/2 13/23/2 6/27/2 5/12/2 

vt -1.30149 0.266667
f 15/4/4 14/5/4 5/26/4 4/28/4 

vt 0.266667 0.4
f 16/10/5 15/9/5 4/24/5 3/29/5 

vn 0 1 -0
vt 1.30149 0.266667
vt 0.968153 0.266667
f 10/14/6 16/19/6 3/30/6 2/31/6 

